<svg xmlns="http://www.w3.org/2000/svg" viewBox="0 0 800 800" width="100%" height="100%" preserveAspectRatio="xMidYMid slice">
  <defs>
    <pattern id="gridPattern" patternUnits="userSpaceOnUse" width="40" height="40" patternTransform="scale(0.7)">
      <rect x="0" y="0" width="40" height="40" fill="none" stroke="#95A5A0" stroke-width="0.5" opacity="0.2" />
    </pattern>
    <linearGradient id="bgGradient" x1="0%" y1="0%" x2="100%" y2="100%">
      <stop offset="0%" stop-color="#FAFAFA" />
      <stop offset="100%" stop-color="#F4F4F4" />
    </linearGradient>
    <filter id="glow" x="-20%" y="-20%" width="140%" height="140%">
      <feGaussianBlur in="SourceGraphic" stdDeviation="5" result="blur" />
      <feComponentTransfer in="blur" result="glow">
        <feFuncA type="linear" slope="0.1" />
      </feComponentTransfer>
      <feMerge>
        <feMergeNode in="glow" />
        <feMergeNode in="SourceGraphic" />
      </feMerge>
    </filter>
  </defs>
  
  <!-- Background -->
  <rect width="100%" height="100%" fill="url(#bgGradient)" />
  <rect width="100%" height="100%" fill="url(#gridPattern)" />
  
  <!-- Main Pattern - Moved to upper right -->
  <g transform="translate(550, 230)" filter="url(#glow)">
    <!-- Mandala Pattern -->
    <g opacity="0.6">
      <!-- Outer circles -->
      <circle cx="0" cy="0" r="250" fill="none" stroke="#95A5A0" stroke-width="0.8" opacity="0.2" />
      <circle cx="0" cy="0" r="200" fill="none" stroke="#95A5A0" stroke-width="0.8" opacity="0.3" />
      <circle cx="0" cy="0" r="150" fill="none" stroke="#95A5A0" stroke-width="0.8" opacity="0.3" />
      
      <!-- Star pattern -->
      <g opacity="0.15">
        <!-- 10-pointed star -->
        <g stroke="#2C3333" stroke-width="1" fill="none">
          <path d="M0,-150 L29,-92.7 L130,-75 L75,-29 L92.7,130 L0,75 L-92.7,130 L-75,-29 L-130,-75 L-29,-92.7 Z" />
          
          <!-- Inner connections -->
          <line x1="0" y1="-150" x2="0" y2="150" />
          <line x1="-130" y1="-75" x2="130" y2="75" />
          <line x1="130" y1="-75" x2="-130" y2="75" />
          <line x1="-150" y1="0" x2="150" y2="0" />
        </g>
      </g>
      
      <!-- Inner pattern -->
      <g transform="scale(0.5)">
        <!-- 8-pointed star -->
        <g fill="#2C3333" opacity="0.08">
          <polygon points="0,-150 56.25,-56.25 150,0 56.25,56.25 0,150 -56.25,56.25 -150,0 -56.25,-56.25" />
        </g>
        <circle cx="0" cy="0" r="55" fill="none" stroke="#2C3333" stroke-width="1.5" opacity="0.2" />
        <circle cx="0" cy="0" r="30" fill="#95A5A0" opacity="0.15" />
      </g>
    </g>
    
    <!-- Decorative elements -->
    <g opacity="0.25">
      <!-- 12 dots around the circle -->
      <g fill="#2C3333">
        <circle cx="0" cy="-120" r="3" />
        <circle cx="60" cy="-104" r="3" />
        <circle cx="104" cy="-60" r="3" />
        <circle cx="120" cy="0" r="3" />
        <circle cx="104" cy="60" r="3" />
        <circle cx="60" cy="104" r="3" />
        <circle cx="0" cy="120" r="3" />
        <circle cx="-60" cy="104" r="3" />
        <circle cx="-104" cy="60" r="3" />
        <circle cx="-120" cy="0" r="3" />
        <circle cx="-104" cy="-60" r="3" />
        <circle cx="-60" cy="-104" r="3" />
      </g>
    </g>
  </g>
  
  <!-- Title - Removed -->
</svg> 